<mxfile host="Electron" agent="Mozilla/5.0 (Windows NT 10.0; Win64; x64) AppleWebKit/537.36 (KHTML, like Gecko) draw.io/28.2.5 Chrome/138.0.7204.251 Electron/37.6.1 Safari/537.36" version="28.2.5">
  <diagram name="Recipe System ER Diagram" id="recipe-system-er">
    <mxGraphModel dx="1422" dy="794" grid="1" gridSize="10" guides="1" tooltips="1" connect="1" arrows="1" fold="1" page="1" pageScale="1" pageWidth="1600" pageHeight="2000" math="0" shadow="0">
      <root>
        <mxCell id="0"/>
        <mxCell id="1" parent="0"/>
        
        <!-- Users Entity -->
        <mxCell id="entity-users" value="Users" style="rounded=0;whiteSpace=wrap;html=1;fillColor=#dae8fc;strokeColor=#6c8ebf;fontStyle=1;fontSize=14;" vertex="1" parent="1">
          <mxGeometry x="100" y="100" width="120" height="60" as="geometry"/>
        </mxCell>
        <mxCell id="attr-user-id" value="&lt;u&gt;user_id&lt;/u&gt;" style="ellipse;whiteSpace=wrap;html=1;fillColor=#fff2cc;strokeColor=#d6b656;" vertex="1" parent="1">
          <mxGeometry x="20" y="50" width="90" height="40" as="geometry"/>
        </mxCell>
        <mxCell id="attr-username" value="username" style="ellipse;whiteSpace=wrap;html=1;fillColor=#fff2cc;strokeColor=#d6b656;" vertex="1" parent="1">
          <mxGeometry x="130" y="30" width="90" height="40" as="geometry"/>
        </mxCell>
        <mxCell id="attr-email" value="email" style="ellipse;whiteSpace=wrap;html=1;fillColor=#fff2cc;strokeColor=#d6b656;" vertex="1" parent="1">
          <mxGeometry x="230" y="50" width="90" height="40" as="geometry"/>
        </mxCell>
        <mxCell id="attr-password" value="password" style="ellipse;whiteSpace=wrap;html=1;fillColor=#fff2cc;strokeColor=#d6b656;" vertex="1" parent="1">
          <mxGeometry x="20" y="130" width="90" height="40" as="geometry"/>
        </mxCell>
        <mxCell id="attr-created-at" value="created_at" style="ellipse;whiteSpace=wrap;html=1;fillColor=#fff2cc;strokeColor=#d6b656;" vertex="1" parent="1">
          <mxGeometry x="230" y="130" width="90" height="40" as="geometry"/>
        </mxCell>
        
        <!-- Connections for Users attributes -->
        <mxCell id="edge-user-id" edge="1" parent="1" source="attr-user-id" target="entity-users">
          <mxGeometry relative="1" as="geometry"/>
        </mxCell>
        <mxCell id="edge-username" edge="1" parent="1" source="attr-username" target="entity-users">
          <mxGeometry relative="1" as="geometry"/>
        </mxCell>
        <mxCell id="edge-email" edge="1" parent="1" source="attr-email" target="entity-users">
          <mxGeometry relative="1" as="geometry"/>
        </mxCell>
        <mxCell id="edge-password" edge="1" parent="1" source="attr-password" target="entity-users">
          <mxGeometry relative="1" as="geometry"/>
        </mxCell>
        <mxCell id="edge-created-at" edge="1" parent="1" source="attr-created-at" target="entity-users">
          <mxGeometry relative="1" as="geometry"/>
        </mxCell>
        
        <!-- Ingredients Entity -->
        <mxCell id="entity-ingredients" value="Ingredients" style="rounded=0;whiteSpace=wrap;html=1;fillColor=#dae8fc;strokeColor=#6c8ebf;fontStyle=1;fontSize=14;" vertex="1" parent="1">
          <mxGeometry x="700" y="100" width="120" height="60" as="geometry"/>
        </mxCell>
        <mxCell id="attr-ingredient-id" value="&lt;u&gt;ingredient_id&lt;/u&gt;" style="ellipse;whiteSpace=wrap;html=1;fillColor=#fff2cc;strokeColor=#d6b656;" vertex="1" parent="1">
          <mxGeometry x="600" y="40" width="100" height="40" as="geometry"/>
        </mxCell>
        <mxCell id="attr-ingredient-name" value="name" style="ellipse;whiteSpace=wrap;html=1;fillColor=#fff2cc;strokeColor=#d6b656;" vertex="1" parent="1">
          <mxGeometry x="730" y="30" width="90" height="40" as="geometry"/>
        </mxCell>
        <mxCell id="attr-category" value="category" style="ellipse;whiteSpace=wrap;html=1;fillColor=#fff2cc;strokeColor=#d6b656;" vertex="1" parent="1">
          <mxGeometry x="840" y="50" width="90" height="40" as="geometry"/>
        </mxCell>
        <mxCell id="attr-aliases" value="aliases" style="ellipse;whiteSpace=wrap;html=1;fillColor=#fff2cc;strokeColor=#d6b656;dashed=1;" vertex="1" parent="1">
          <mxGeometry x="600" y="140" width="90" height="40" as="geometry"/>
        </mxCell>
        <mxCell id="attr-unit" value="unit" style="ellipse;whiteSpace=wrap;html=1;fillColor=#fff2cc;strokeColor=#d6b656;" vertex="1" parent="1">
          <mxGeometry x="840" y="140" width="90" height="40" as="geometry"/>
        </mxCell>
        
        <!-- Connections for Ingredients attributes -->
        <mxCell id="" edge="1" parent="1" source="attr-ingredient-id" target="entity-ingredients">
          <mxGeometry relative="1" as="geometry"/>
        </mxCell>
        <mxCell id="" edge="1" parent="1" source="attr-ingredient-name" target="entity-ingredients">
          <mxGeometry relative="1" as="geometry"/>
        </mxCell>
        <mxCell id="" edge="1" parent="1" source="attr-category" target="entity-ingredients">
          <mxGeometry relative="1" as="geometry"/>
        </mxCell>
        <mxCell id="" edge="1" parent="1" source="attr-aliases" target="entity-ingredients">
          <mxGeometry relative="1" as="geometry"/>
        </mxCell>
        <mxCell id="" edge="1" parent="1" source="attr-unit" target="entity-ingredients">
          <mxGeometry relative="1" as="geometry"/>
        </mxCell>
        
        <!-- Recipes Entity -->
        <mxCell id="entity-recipes" value="Recipes" style="rounded=0;whiteSpace=wrap;html=1;fillColor=#dae8fc;strokeColor=#6c8ebf;fontStyle=1;fontSize=14;" vertex="1" parent="1">
          <mxGeometry x="700" y="400" width="120" height="60" as="geometry"/>
        </mxCell>
        <mxCell id="attr-recipe-id" value="&lt;u&gt;recipe_id&lt;/u&gt;" style="ellipse;whiteSpace=wrap;html=1;fillColor=#fff2cc;strokeColor=#d6b656;" vertex="1" parent="1">
          <mxGeometry x="580" y="340" width="90" height="40" as="geometry"/>
        </mxCell>
        <mxCell id="attr-title" value="title" style="ellipse;whiteSpace=wrap;html=1;fillColor=#fff2cc;strokeColor=#d6b656;" vertex="1" parent="1">
          <mxGeometry x="700" y="320" width="90" height="40" as="geometry"/>
        </mxCell>
        <mxCell id="attr-description" value="description" style="ellipse;whiteSpace=wrap;html=1;fillColor=#fff2cc;strokeColor=#d6b656;" vertex="1" parent="1">
          <mxGeometry x="820" y="330" width="100" height="40" as="geometry"/>
        </mxCell>
        <mxCell id="attr-instructions" value="instructions" style="ellipse;whiteSpace=wrap;html=1;fillColor=#fff2cc;strokeColor=#d6b656;" vertex="1" parent="1">
          <mxGeometry x="560" y="410" width="100" height="40" as="geometry"/>
        </mxCell>
        <mxCell id="attr-prep-time" value="prep_time_minutes" style="ellipse;whiteSpace=wrap;html=1;fillColor=#fff2cc;strokeColor=#d6b656;" vertex="1" parent="1">
          <mxGeometry x="540" y="480" width="130" height="40" as="geometry"/>
        </mxCell>
        <mxCell id="attr-cook-time" value="cook_time_minutes" style="ellipse;whiteSpace=wrap;html=1;fillColor=#fff2cc;strokeColor=#d6b656;" vertex="1" parent="1">
          <mxGeometry x="690" y="500" width="130" height="40" as="geometry"/>
        </mxCell>
        <mxCell id="attr-servings" value="servings" style="ellipse;whiteSpace=wrap;html=1;fillColor=#fff2cc;strokeColor=#d6b656;" vertex="1" parent="1">
          <mxGeometry x="850" y="480" width="90" height="40" as="geometry"/>
        </mxCell>
        <mxCell id="attr-image-url" value="image_url" style="ellipse;whiteSpace=wrap;html=1;fillColor=#fff2cc;strokeColor=#d6b656;" vertex="1" parent="1">
          <mxGeometry x="850" y="410" width="90" height="40" as="geometry"/>
        </mxCell>
        <mxCell id="attr-difficulty" value="difficulty" style="ellipse;whiteSpace=wrap;html=1;fillColor=#fff2cc;strokeColor=#d6b656;" vertex="1" parent="1">
          <mxGeometry x="930" y="350" width="90" height="40" as="geometry"/>
        </mxCell>
        
        <!-- Connections for Recipes attributes -->
        <mxCell id="" edge="1" parent="1" source="attr-recipe-id" target="entity-recipes">
          <mxGeometry relative="1" as="geometry"/>
        </mxCell>
        <mxCell id="" edge="1" parent="1" source="attr-title" target="entity-recipes">
          <mxGeometry relative="1" as="geometry"/>
        </mxCell>
        <mxCell id="" edge="1" parent="1" source="attr-description" target="entity-recipes">
          <mxGeometry relative="1" as="geometry"/>
        </mxCell>
        <mxCell id="" edge="1" parent="1" source="attr-instructions" target="entity-recipes">
          <mxGeometry relative="1" as="geometry"/>
        </mxCell>
        <mxCell id="" edge="1" parent="1" source="attr-prep-time" target="entity-recipes">
          <mxGeometry relative="1" as="geometry"/>
        </mxCell>
        <mxCell id="" edge="1" parent="1" source="attr-cook-time" target="entity-recipes">
          <mxGeometry relative="1" as="geometry"/>
        </mxCell>
        <mxCell id="" edge="1" parent="1" source="attr-servings" target="entity-recipes">
          <mxGeometry relative="1" as="geometry"/>
        </mxCell>
        <mxCell id="" edge="1" parent="1" source="attr-image-url" target="entity-recipes">
          <mxGeometry relative="1" as="geometry"/>
        </mxCell>
        <mxCell id="" edge="1" parent="1" source="attr-difficulty" target="entity-recipes">
          <mxGeometry relative="1" as="geometry"/>
        </mxCell>
        
        <!-- Tags Entity -->
        <mxCell id="entity-tags" value="Tags" style="rounded=0;whiteSpace=wrap;html=1;fillColor=#dae8fc;strokeColor=#6c8ebf;fontStyle=1;fontSize=14;" vertex="1" parent="1">
          <mxGeometry x="1100" y="400" width="120" height="60" as="geometry"/>
        </mxCell>
        <mxCell id="attr-tag-id" value="&lt;u&gt;tag_id&lt;/u&gt;" style="ellipse;whiteSpace=wrap;html=1;fillColor=#fff2cc;strokeColor=#d6b656;" vertex="1" parent="1">
          <mxGeometry x="1050" y="320" width="80" height="40" as="geometry"/>
        </mxCell>
        <mxCell id="attr-tag-name" value="tag_name" style="ellipse;whiteSpace=wrap;html=1;fillColor=#fff2cc;strokeColor=#d6b656;" vertex="1" parent="1">
          <mxGeometry x="1150" y="320" width="90" height="40" as="geometry"/>
        </mxCell>
        <mxCell id="attr-tag-type" value="tag_type" style="ellipse;whiteSpace=wrap;html=1;fillColor=#fff2cc;strokeColor=#d6b656;" vertex="1" parent="1">
          <mxGeometry x="1240" y="360" width="90" height="40" as="geometry"/>
        </mxCell>
        
        <!-- Connections for Tags attributes -->
        <mxCell id="" edge="1" parent="1" source="attr-tag-id" target="entity-tags">
          <mxGeometry relative="1" as="geometry"/>
        </mxCell>
        <mxCell id="" edge="1" parent="1" source="attr-tag-name" target="entity-tags">
          <mxGeometry relative="1" as="geometry"/>
        </mxCell>
        <mxCell id="" edge="1" parent="1" source="attr-tag-type" target="entity-tags">
          <mxGeometry relative="1" as="geometry"/>
        </mxCell>
        
        <!-- Recipe_Ingredients Relationship (n:m with attributes) -->
        <mxCell id="rel-recipe-ingredients" value="Contains" style="rhombus;whiteSpace=wrap;html=1;fillColor=#f8cecc;strokeColor=#b85450;fontStyle=1;" vertex="1" parent="1">
          <mxGeometry x="710" y="240" width="100" height="80" as="geometry"/>
        </mxCell>
        <mxCell id="attr-quantity" value="quantity_display" style="ellipse;whiteSpace=wrap;html=1;fillColor=#e1d5e7;strokeColor=#9673a6;" vertex="1" parent="1">
          <mxGeometry x="570" y="230" width="110" height="40" as="geometry"/>
        </mxCell>
        <mxCell id="attr-is-core" value="is_core_ingredient" style="ellipse;whiteSpace=wrap;html=1;fillColor=#e1d5e7;strokeColor=#9673a6;" vertex="1" parent="1">
          <mxGeometry x="840" y="220" width="120" height="40" as="geometry"/>
        </mxCell>
        <mxCell id="attr-notes" value="notes" style="ellipse;whiteSpace=wrap;html=1;fillColor=#e1d5e7;strokeColor=#9673a6;" vertex="1" parent="1">
          <mxGeometry x="850" y="280" width="80" height="40" as="geometry"/>
        </mxCell>
        
        <!-- Connections for Recipe_Ingredients relationship attributes -->
        <mxCell id="" edge="1" parent="1" source="attr-quantity" target="rel-recipe-ingredients">
          <mxGeometry relative="1" as="geometry"/>
        </mxCell>
        <mxCell id="" edge="1" parent="1" source="attr-is-core" target="rel-recipe-ingredients">
          <mxGeometry relative="1" as="geometry"/>
        </mxCell>
        <mxCell id="" edge="1" parent="1" source="attr-notes" target="rel-recipe-ingredients">
          <mxGeometry relative="1" as="geometry"/>
        </mxCell>
        
        <!-- Recipe_Ingredients connections with cardinality -->
        <mxCell id="" edge="1" parent="1" source="entity-ingredients" target="rel-recipe-ingredients">
          <mxGeometry relative="1" as="geometry"/>
        </mxCell>
        <mxCell id="" value="m" style="edgeLabel;html=1;align=center;verticalAlign=middle;resizable=0;points=[];" vertex="1" connectable="0" parent="">
          <mxGeometry x="-0.3" y="1" relative="1" as="geometry">
            <mxPoint x="5" y="-10" as="offset"/>
          </mxGeometry>
        </mxCell>
        <mxCell id="" edge="1" parent="1" source="rel-recipe-ingredients" target="entity-recipes">
          <mxGeometry relative="1" as="geometry"/>
        </mxCell>
        <mxCell id="" value="n" style="edgeLabel;html=1;align=center;verticalAlign=middle;resizable=0;points=[];" vertex="1" connectable="0" parent="">
          <mxGeometry x="0.3" y="1" relative="1" as="geometry">
            <mxPoint x="-5" y="10" as="offset"/>
          </mxGeometry>
        </mxCell>
        
        <!-- Recipe_Tags Relationship (n:m) -->
        <mxCell id="rel-recipe-tags" value="Has_Tag" style="rhombus;whiteSpace=wrap;html=1;fillColor=#f8cecc;strokeColor=#b85450;fontStyle=1;" vertex="1" parent="1">
          <mxGeometry x="920" y="390" width="100" height="80" as="geometry"/>
        </mxCell>
        <mxCell id="" edge="1" parent="1" source="entity-recipes" target="rel-recipe-tags">
          <mxGeometry relative="1" as="geometry"/>
        </mxCell>
        <mxCell id="" value="n" style="edgeLabel;html=1;align=center;verticalAlign=middle;resizable=0;points=[];" vertex="1" connectable="0" parent="">
          <mxGeometry x="-0.2" y="1" relative="1" as="geometry">
            <mxPoint y="-10" as="offset"/>
          </mxGeometry>
        </mxCell>
        <mxCell id="" edge="1" parent="1" source="rel-recipe-tags" target="entity-tags">
          <mxGeometry relative="1" as="geometry"/>
        </mxCell>
        <mxCell id="" value="m" style="edgeLabel;html=1;align=center;verticalAlign=middle;resizable=0;points=[];" vertex="1" connectable="0" parent="">
          <mxGeometry x="0.2" y="1" relative="1" as="geometry">
            <mxPoint y="-10" as="offset"/>
          </mxGeometry>
        </mxCell>
        
        <!-- Favorite_Recipes Relationship (n:m) -->
        <mxCell id="rel-favorite-recipes" value="Favorites" style="rhombus;whiteSpace=wrap;html=1;fillColor=#f8cecc;strokeColor=#b85450;fontStyle=1;" vertex="1" parent="1">
          <mxGeometry x="380" y="240" width="100" height="80" as="geometry"/>
        </mxCell>
        <mxCell id="attr-favorited-at" value="favorited_at" style="ellipse;whiteSpace=wrap;html=1;fillColor=#e1d5e7;strokeColor=#9673a6;" vertex="1" parent="1">
          <mxGeometry x="300" y="190" width="100" height="40" as="geometry"/>
        </mxCell>
        <mxCell id="" edge="1" parent="1" source="attr-favorited-at" target="rel-favorite-recipes">
          <mxGeometry relative="1" as="geometry"/>
        </mxCell>
        <mxCell id="" edge="1" parent="1" source="entity-users" target="rel-favorite-recipes">
          <mxGeometry relative="1" as="geometry"/>
        </mxCell>
        <mxCell id="" value="n" style="edgeLabel;html=1;align=center;verticalAlign=middle;resizable=0;points=[];" vertex="1" connectable="0" parent="">
          <mxGeometry x="-0.3" y="1" relative="1" as="geometry">
            <mxPoint x="5" y="-10" as="offset"/>
          </mxGeometry>
        </mxCell>
        <mxCell id="" edge="1" parent="1" source="rel-favorite-recipes" target="entity-recipes">
          <mxGeometry relative="1" as="geometry">
            <Array as="points">
              <mxPoint x="520" y="280"/>
              <mxPoint x="620" y="350"/>
            </Array>
          </mxGeometry>
        </mxCell>
        <mxCell id="" value="m" style="edgeLabel;html=1;align=center;verticalAlign=middle;resizable=0;points=[];" vertex="1" connectable="0" parent="">
          <mxGeometry x="0.3" y="1" relative="1" as="geometry">
            <mxPoint x="-5" y="10" as="offset"/>
          </mxGeometry>
        </mxCell>
        
        <!-- User_Pantry Relationship (n:m) -->
        <mxCell id="rel-user-pantry" value="Owns" style="rhombus;whiteSpace=wrap;html=1;fillColor=#f8cecc;strokeColor=#b85450;fontStyle=1;" vertex="1" parent="1">
          <mxGeometry x="380" y="90" width="100" height="80" as="geometry"/>
        </mxCell>
        <mxCell id="attr-added-at" value="added_at" style="ellipse;whiteSpace=wrap;html=1;fillColor=#e1d5e7;strokeColor=#9673a6;" vertex="1" parent="1">
          <mxGeometry x="350" y="20" width="90" height="40" as="geometry"/>
        </mxCell>
        <mxCell id="attr-quantity-owned" value="quantity" style="ellipse;whiteSpace=wrap;html=1;fillColor=#e1d5e7;strokeColor=#9673a6;" vertex="1" parent="1">
          <mxGeometry x="460" y="20" width="80" height="40" as="geometry"/>
        </mxCell>
        <mxCell id="" edge="1" parent="1" source="attr-added-at" target="rel-user-pantry">
          <mxGeometry relative="1" as="geometry"/>
        </mxCell>
        <mxCell id="" edge="1" parent="1" source="attr-quantity-owned" target="rel-user-pantry">
          <mxGeometry relative="1" as="geometry"/>
        </mxCell>
        <mxCell id="" edge="1" parent="1" source="entity-users" target="rel-user-pantry">
          <mxGeometry relative="1" as="geometry"/>
        </mxCell>
        <mxCell id="" value="1" style="edgeLabel;html=1;align=center;verticalAlign=middle;resizable=0;points=[];" vertex="1" connectable="0" parent="">
          <mxGeometry x="-0.3" y="1" relative="1" as="geometry">
            <mxPoint x="5" y="-10" as="offset"/>
          </mxGeometry>
        </mxCell>
        <mxCell id="" edge="1" parent="1" source="rel-user-pantry" target="entity-ingredients">
          <mxGeometry relative="1" as="geometry">
            <Array as="points">
              <mxPoint x="550" y="130"/>
            </Array>
          </mxGeometry>
        </mxCell>
        <mxCell id="" value="m" style="edgeLabel;html=1;align=center;verticalAlign=middle;resizable=0;points=[];" vertex="1" connectable="0" parent="">
          <mxGeometry x="0.3" y="1" relative="1" as="geometry">
            <mxPoint x="-5" y="-10" as="offset"/>
          </mxGeometry>
        </mxCell>
        
        <!-- User Preferences (as weak entity or additional attributes) -->
        <mxCell id="entity-user-preferences" value="User_Preferences" style="rounded=0;whiteSpace=wrap;html=1;fillColor=#d5e8d4;strokeColor=#82b366;fontStyle=1;fontSize=12;dashed=1;" vertex="1" parent="1">
          <mxGeometry x="100" y="250" width="130" height="60" as="geometry"/>
        </mxCell>
        <mxCell id="attr-pref-id" value="&lt;u&gt;preference_id&lt;/u&gt;" style="ellipse;whiteSpace=wrap;html=1;fillColor=#fff2cc;strokeColor=#d6b656;" vertex="1" parent="1">
          <mxGeometry x="10" y="200" width="100" height="40" as="geometry"/>
        </mxCell>
        <mxCell id="attr-diet-type" value="diet_type" style="ellipse;whiteSpace=wrap;html=1;fillColor=#fff2cc;strokeColor=#d6b656;" vertex="1" parent="1">
          <mxGeometry x="130" y="190" width="90" height="40" as="geometry"/>
        </mxCell>
        <mxCell id="attr-allergens" value="allergens" style="ellipse;whiteSpace=wrap;html=1;fillColor=#fff2cc;strokeColor=#d6b656;style=ellipse;shape=doubleEllipse;" vertex="1" parent="1">
          <mxGeometry x="240" y="210" width="90" height="40" as="geometry"/>
        </mxCell>
        <mxCell id="" edge="1" parent="1" source="attr-pref-id" target="entity-user-preferences">
          <mxGeometry relative="1" as="geometry"/>
        </mxCell>
        <mxCell id="" edge="1" parent="1" source="attr-diet-type" target="entity-user-preferences">
          <mxGeometry relative="1" as="geometry"/>
        </mxCell>
        <mxCell id="" edge="1" parent="1" source="attr-allergens" target="entity-user-preferences">
          <mxGeometry relative="1" as="geometry"/>
        </mxCell>
        
        <!-- User to Preferences Relationship (1:1) -->
        <mxCell id="rel-has-preferences" value="Has" style="rhombus;whiteSpace=wrap;html=1;fillColor=#f8cecc;strokeColor=#b85450;fontStyle=1;fontSize=11;" vertex="1" parent="1">
          <mxGeometry x="125" y="170" width="80" height="60" as="geometry"/>
        </mxCell>
        <mxCell id="" edge="1" parent="1" source="entity-users" target="rel-has-preferences">
          <mxGeometry relative="1" as="geometry"/>
        </mxCell>
        <mxCell id="" value="1" style="edgeLabel;html=1;align=center;verticalAlign=middle;resizable=0;points=[];" vertex="1" connectable="0" parent="">
          <mxGeometry x="-0.2" y="1" relative="1" as="geometry">
            <mxPoint y="-10" as="offset"/>
          </mxGeometry>
        </mxCell>
        <mxCell id="" edge="1" parent="1" source="rel-has-preferences" target="entity-user-preferences">
          <mxGeometry relative="1" as="geometry"/>
        </mxCell>
        <mxCell id="" value="1" style="edgeLabel;html=1;align=center;verticalAlign=middle;resizable=0;points=[];" vertex="1" connectable="0" parent="">
          <mxGeometry x="0.2" y="1" relative="1" as="geometry">
            <mxPoint y="10" as="offset"/>
          </mxGeometry>
        </mxCell>
        
        <!-- Legend/Notes -->
        <mxCell id="legend-title" value="Legend:" style="text;html=1;strokeColor=none;fillColor=none;align=left;verticalAlign=middle;whiteSpace=wrap;rounded=0;fontStyle=1;fontSize=14;" vertex="1" parent="1">
          <mxGeometry x="100" y="600" width="80" height="30" as="geometry"/>
        </mxCell>
        <mxCell id="legend-entity" value="Entity (Strong)" style="rounded=0;whiteSpace=wrap;html=1;fillColor=#dae8fc;strokeColor=#6c8ebf;fontSize=11;" vertex="1" parent="1">
          <mxGeometry x="100" y="640" width="120" height="40" as="geometry"/>
        </mxCell>
        <mxCell id="legend-relationship" value="Relationship" style="rhombus;whiteSpace=wrap;html=1;fillColor=#f8cecc;strokeColor=#b85450;fontSize=11;" vertex="1" parent="1">
          <mxGeometry x="100" y="700" width="120" height="60" as="geometry"/>
        </mxCell>
        <mxCell id="legend-key-attr" value="&lt;u&gt;Primary Key&lt;/u&gt;" style="ellipse;whiteSpace=wrap;html=1;fillColor=#fff2cc;strokeColor=#d6b656;fontSize=11;" vertex="1" parent="1">
          <mxGeometry x="270" y="640" width="110" height="40" as="geometry"/>
        </mxCell>
        <mxCell id="legend-rel-attr" value="Rel. Attribute" style="ellipse;whiteSpace=wrap;html=1;fillColor=#e1d5e7;strokeColor=#9673a6;fontSize=11;" vertex="1" parent="1">
          <mxGeometry x="270" y="700" width="110" height="40" as="geometry"/>
        </mxCell>
        <mxCell id="legend-multi-attr" value="Multivalued" style="ellipse;whiteSpace=wrap;html=1;fillColor=#fff2cc;strokeColor=#d6b656;fontSize=11;shape=doubleEllipse;" vertex="1" parent="1">
          <mxGeometry x="420" y="640" width="110" height="40" as="geometry"/>
        </mxCell>
        <mxCell id="legend-derived-attr" value="Derived" style="ellipse;whiteSpace=wrap;html=1;fillColor=#fff2cc;strokeColor=#d6b656;fontSize=11;dashed=1;" vertex="1" parent="1">
          <mxGeometry x="420" y="700" width="110" height="40" as="geometry"/>
        </mxCell>
        
        <!-- Business Notes -->
        <mxCell id="note-title" value="Key Business Rules:" style="text;html=1;strokeColor=none;fillColor=none;align=left;verticalAlign=middle;whiteSpace=wrap;rounded=0;fontStyle=1;fontSize=13;" vertex="1" parent="1">
          <mxGeometry x="100" y="800" width="180" height="30" as="geometry"/>
        </mxCell>
        <mxCell id="note-1" value="1. Recipe-Ingredient 'is_core_ingredient' drives matching logic" style="text;html=1;strokeColor=none;fillColor=none;align=left;verticalAlign=middle;whiteSpace=wrap;rounded=0;fontSize=11;" vertex="1" parent="1">
          <mxGeometry x="100" y="830" width="400" height="25" as="geometry"/>
        </mxCell>
        <mxCell id="note-2" value="2. User_Pantry tracks available ingredients for search" style="text;html=1;strokeColor=none;fillColor=none;align=left;verticalAlign=middle;whiteSpace=wrap;rounded=0;fontSize=11;" vertex="1" parent="1">
          <mxGeometry x="100" y="855" width="400" height="25" as="geometry"/>
        </mxCell>
        <mxCell id="note-3" value="3. Tags enable filtering by cuisine, meal type, diet preferences" style="text;html=1;strokeColor=none;fillColor=none;align=left;verticalAlign=middle;whiteSpace=wrap;rounded=0;fontSize=11;" vertex="1" parent="1">
          <mxGeometry x="100" y="880" width="400" height="25" as="geometry"/>
        </mxCell>
        <mxCell id="note-4" value="4. User_Preferences enforces dietary restrictions &amp; allergen filters" style="text;html=1;strokeColor=none;fillColor=none;align=left;verticalAlign=middle;whiteSpace=wrap;rounded=0;fontSize=11;" vertex="1" parent="1">
          <mxGeometry x="100" y="905" width="400" height="25" as="geometry"/>
        </mxCell>
        <mxCell id="note-5" value="5. Ingredient 'aliases' supports fuzzy search (土豆=马铃薯)" style="text;html=1;strokeColor=none;fillColor=none;align=left;verticalAlign=middle;whiteSpace=wrap;rounded=0;fontSize=11;" vertex="1" parent="1">
          <mxGeometry x="100" y="930" width="400" height="25" as="geometry"/>
        </mxCell>
        
        <!-- Cardinality Notes -->
        <mxCell id="card-note-title" value="Participation Constraints:" style="text;html=1;strokeColor=none;fillColor=none;align=left;verticalAlign=middle;whiteSpace=wrap;rounded=0;fontStyle=1;fontSize=13;" vertex="1" parent="1">
          <mxGeometry x="700" y="600" width="220" height="30" as="geometry"/>
        </mxCell>
        <mxCell id="card-1" value="• Recipe ←Contains→ Ingredient: Total participation (n:m)" style="text;html=1;strokeColor=none;fillColor=none;align=left;verticalAlign=middle;whiteSpace=wrap;rounded=0;fontSize=11;" vertex="1" parent="1">
          <mxGeometry x="700" y="630" width="400" height="25" as="geometry"/>
        </mxCell>
        <mxCell id="card-2" value="• Recipe ←Has_Tag→ Tag: Partial participation (n:m)" style="text;html=1;strokeColor=none;fillColor=none;align=left;verticalAlign=middle;whiteSpace=wrap;rounded=0;fontSize=11;" vertex="1" parent="1">
          <mxGeometry x="700" y="655" width="400" height="25" as="geometry"/>
        </mxCell>
        <mxCell id="card-3" value="• User ←Favorites→ Recipe: Partial participation (n:m)" style="text;html=1;strokeColor=none;fillColor=none;align=left;verticalAlign=middle;whiteSpace=wrap;rounded=0;fontSize=11;" vertex="1" parent="1">
          <mxGeometry x="700" y="680" width="400" height="25" as="geometry"/>
        </mxCell>
        <mxCell id="card-4" value="• User ←Owns→ Ingredient: Partial participation (1:m)" style="text;html=1;strokeColor=none;fillColor=none;align=left;verticalAlign=middle;whiteSpace=wrap;rounded=0;fontSize=11;" vertex="1" parent="1">
          <mxGeometry x="700" y="705" width="400" height="25" as="geometry"/>
        </mxCell>
        <mxCell id="card-5" value="• User ←Has→ Preferences: Total participation (1:1)" style="text;html=1;strokeColor=none;fillColor=none;align=left;verticalAlign=middle;whiteSpace=wrap;rounded=0;fontSize=11;" vertex="1" parent="1">
          <mxGeometry x="700" y="730" width="400" height="25" as="geometry"/>
        </mxCell>
        
      </root>
    </mxGraphModel>
  </diagram>
</mxfile>
